<svg width="433" height="191" viewBox="0 0 433 191" fill="none" xmlns="http://www.w3.org/2000/svg">
<g clip-path="url(#clip0_8_118)">
<path d="M155.057 99.9162C155.121 99.8858 155.189 99.8653 155.259 99.8552C155.466 99.1942 155.673 98.5332 155.884 97.8815C148.573 100.315 141.732 103.845 134.825 107.225C133.416 107.928 131.954 108.608 130.512 109.288C131.25 109.916 131.992 110.544 132.748 111.163C136.357 108.819 140.224 107.047 144.138 105.265C147.831 103.582 151.345 101.571 155.057 99.9162Z" fill="#EAEDD6"/>
<path d="M135.817 113.633C136.568 114.233 137.32 114.829 138.067 115.434C140.633 114.355 143.043 112.958 145.665 111.969C147.915 111.125 150.128 109.686 152.52 109.339C152.788 108.303 153.065 107.276 153.352 106.25C150.655 107.581 147.774 108.65 145.049 109.911C142.044 111.324 138.962 112.566 135.817 113.633Z" fill="#EAEDD6"/>
<path d="M187.12 51.7653C180.293 48.8259 173.025 47.3961 165.798 45.9334C158.055 44.3723 150.443 42.0939 142.864 39.8811C127.448 35.39 112.075 30.7629 96.5695 26.6656C90.8529 25.156 85.1285 23.673 79.3963 22.2166C77.1938 23.4957 74.8768 24.5677 72.4753 25.4185C72.3596 25.4357 72.2414 25.4135 72.1398 25.3556C72.0383 25.2977 71.9591 25.2074 71.9152 25.0992C71.8713 24.991 71.8651 24.8712 71.8977 24.759C71.9302 24.6469 71.9996 24.549 72.0947 24.4809C73.793 23.6652 75.417 22.7037 76.9483 21.6072L75.0313 21.1149C73.7533 21.7572 72.4894 22.4041 71.3101 23.1308C70.7086 23.5011 70.22 22.5776 70.7838 22.1932C71.5403 21.6728 72.3108 21.143 73.0955 20.6227C65.3053 18.6349 57.5151 16.6613 49.739 14.6407C42.2682 12.6999 34.857 10.5559 27.5054 8.20876C20.7911 6.06633 13.7997 3.05192 6.69543 2.58311C15.6744 4.55678 27.5242 10.8903 36.7662 15.7846C47.9488 21.7228 59.2254 27.4953 70.5959 33.1022C71.7473 32.882 72.9201 32.7939 74.0916 32.8397C74.1735 32.8453 74.2504 32.8808 74.3077 32.9395C74.365 32.9981 74.3986 33.0758 74.4021 33.1576C74.4056 33.2394 74.3787 33.3197 74.3266 33.383C74.2746 33.4463 74.2009 33.4882 74.1198 33.5007C73.4902 33.571 72.8559 33.6507 72.2404 33.7398L71.9819 33.782L73.8191 34.6915C75.1188 34.6141 76.4068 34.402 77.6625 34.0586C77.7536 34.032 77.8515 34.0418 77.9356 34.0859C78.0196 34.1299 78.0833 34.2048 78.1131 34.2947C78.143 34.3846 78.1367 34.4826 78.0956 34.5679C78.0544 34.6533 77.9817 34.7195 77.8927 34.7524C76.9986 35.0133 76.0883 35.2154 75.1676 35.3572L76.751 36.1401C78.8559 35.9385 80.9797 35.7463 83.0706 35.5963C83.4182 35.5728 83.4276 36.0651 83.0987 36.126C81.4589 36.3417 79.8098 36.637 78.1747 36.8433L79.7675 37.6262L80.6273 38.0481C83.7049 37.6637 86.7354 37.1105 89.8271 36.712C90.1748 36.6698 90.1842 37.1808 89.8506 37.2511C87.2147 37.6824 84.5976 38.3528 81.9476 38.6998L84.6869 40.0405C87.8161 39.3326 91.1004 39.056 94.2578 38.5403C94.5679 38.4888 94.6666 39.0092 94.3565 39.0842C91.6031 39.6139 88.8028 40.2702 86.0071 40.6875L88.1027 41.7142C91.9367 41.1844 95.7426 40.5093 99.5578 39.8671C99.9807 39.7967 100.004 40.4531 99.5907 40.5234C96.1889 41.1141 92.8107 41.8454 89.3948 42.347L91.824 43.5425C96.2171 42.858 100.624 42.3752 104.924 41.1985C105.393 41.0766 105.605 41.7657 105.149 41.8923C101.242 42.9245 97.2732 43.7074 93.2664 44.2363L96.2923 45.7177C101.146 44.752 106 43.4112 110.91 42.8721C111.257 42.8346 111.267 43.3409 110.933 43.3972C106.474 44.1004 102.17 45.5115 97.7489 46.4303L100.742 47.893C100.774 47.8683 100.808 47.8479 100.845 47.832C103.495 47.0023 106.324 46.6225 109.03 45.9568C111.544 45.2687 114.13 44.8739 116.736 44.7801C116.806 44.7801 116.872 44.8078 116.922 44.857C116.971 44.9063 116.999 44.973 116.999 45.0427C116.999 45.1123 116.971 45.1791 116.922 45.2283C116.872 45.2775 116.806 45.3052 116.736 45.3052C111.68 45.5349 106.869 47.5226 101.921 48.4696L104.491 49.7213C110.294 48.854 116.195 47.1757 122.055 46.8616C122.086 46.8566 122.118 46.8639 122.144 46.8819C122.17 46.9 122.188 46.9275 122.194 46.9585C122.2 46.9895 122.194 47.0217 122.177 47.0482C122.159 47.0748 122.132 47.0936 122.101 47.1007C116.86 48.6916 111.49 49.8226 106.051 50.4808L109.895 52.356C115.754 51.2262 121.679 50.5089 127.533 49.3135C127.787 49.2619 127.914 49.6182 127.66 49.6979C122.36 51.3629 116.906 52.4936 111.379 53.0733L114.964 54.7891C120.56 53.8515 126.114 52.6795 131.752 52.0325C131.912 52.0325 131.959 52.2763 131.804 52.3091C126.664 53.3077 121.58 54.5312 116.43 55.4923L119.405 56.8987C122.008 56.4299 124.573 55.7689 127.195 55.4032C130.174 54.9813 133.157 54.6672 136.056 53.8468C136.098 53.8372 136.143 53.8436 136.18 53.8649C136.218 53.8861 136.247 53.9207 136.26 53.9618C136.274 54.0028 136.271 54.0474 136.254 54.0869C136.236 54.1263 136.204 54.1577 136.164 54.175C133.253 55.1154 130.266 55.8039 127.237 56.233C125.076 56.5799 122.961 57.1284 120.823 57.5644L124.977 59.5146C129.901 58.6849 134.867 57.902 139.749 56.969C140.041 56.9128 140.196 57.3253 139.895 57.4378C136.752 58.4598 133.317 58.6942 130.061 59.3131C128.778 59.5568 127.51 59.8381 126.236 60.11C139.806 66.4248 153.488 72.4536 167.48 77.9246C167.625 77.982 167.761 78.0594 167.884 78.1543C173.772 68.8954 183.22 62.0556 187.661 51.9622C187.471 51.9271 187.288 51.8606 187.12 51.7653ZM156.204 71.4832C157.839 69.4486 159.258 67.2639 160.959 65.2481C161.212 64.9574 161.724 65.3653 161.49 65.67C160.55 66.8702 159.723 68.1453 158.811 69.3642C158.125 70.2784 157.627 71.3144 156.861 72.177C156.448 72.6271 155.837 71.9473 156.204 71.4832ZM158.121 72.6505C159.136 70.4003 161.25 68.4313 162.819 66.5561C163.313 65.9654 164.591 63.8089 165.465 63.6776C165.477 63.6748 165.49 63.6757 165.502 63.6803C165.515 63.6849 165.525 63.693 165.533 63.7035C165.54 63.714 165.544 63.7265 165.545 63.7394C165.545 63.7523 165.542 63.765 165.535 63.776C163.989 67.2499 160.644 69.7627 158.957 73.1521C158.675 73.7381 157.862 73.2178 158.121 72.6505ZM159.667 73.0115C160.606 71.0566 162.486 69.3548 163.97 67.7843C165.779 65.8576 167.696 64.062 169.689 62.3228C170.022 62.0321 170.487 62.5103 170.158 62.8197C168.279 64.648 166.367 66.4951 164.642 68.4875C163.261 70.0909 161.569 71.7035 160.55 73.5553C160.23 74.1554 159.375 73.6116 159.667 73.0115ZM162.114 74.446C164.115 71.5667 166.275 68.8012 168.584 66.1623C169.994 64.5965 172.089 61.6149 174.223 61.0758C174.359 61.0429 174.481 61.2304 174.364 61.3242C169.825 64.8918 166.404 70.4049 163.087 75.0414C162.669 75.6415 161.682 75.0695 162.114 74.446ZM164.097 75.0086C167.696 69.1673 172.869 64.2261 177.723 59.4912C178.005 59.2193 178.404 59.6412 178.141 59.9225C173.546 64.8684 168.66 69.8658 164.985 75.5665C164.898 75.6502 164.786 75.7024 164.666 75.7148C164.545 75.7272 164.424 75.699 164.322 75.6348C164.22 75.5705 164.142 75.4739 164.101 75.3604C164.061 75.2469 164.059 75.123 164.097 75.0086ZM181.792 58.3473C180.016 61.4649 177.117 63.8323 174.791 66.5326C172.122 69.6408 169.327 73.1568 167.25 76.7057C167.171 76.8229 167.05 76.9054 166.912 76.936C166.774 76.9666 166.63 76.9429 166.509 76.8698C166.388 76.7968 166.299 76.68 166.263 76.5438C166.226 76.4076 166.243 76.2624 166.31 76.1384C168.149 73.1074 170.246 70.2402 172.578 67.5687C175.327 64.3386 178.921 61.568 181.27 58.0473C181.316 57.992 181.381 57.9547 181.452 57.942C181.522 57.9293 181.596 57.942 181.658 57.9779C181.72 58.0139 181.768 58.0706 181.793 58.1382C181.817 58.2058 181.817 58.2799 181.792 58.3473Z" fill="#EAEDD6"/>
<path d="M152.426 95.9547C147.37 93.667 142.615 90.4135 138.161 87.2584C131.809 82.7439 125.367 78.3512 118.794 74.1929C106.216 66.2232 93.055 59.4912 80.0729 52.2341C66.79 44.8036 53.963 36.6276 41.3191 28.1892C29.8358 20.5055 18.0049 13.1078 6.7941 5.01152C13.2499 14.6126 20.4904 23.6746 26.5281 33.557C33.3833 44.8083 40.3324 56.008 46.8634 67.4562C53.0185 78.2574 59.3334 89.1337 64.7368 100.385C67.2772 105.797 69.5232 111.341 71.4651 116.995C73.274 122.076 74.5145 127.416 77.2584 132.109C81.9946 128.63 87.4402 126.258 92.7637 123.816C99.7128 120.642 106.592 117.29 113.508 114.032C120.842 110.577 128.247 107.262 135.506 103.648C141.065 100.854 146.623 98.1206 152.426 95.9547ZM37.5227 29.0565C29.0183 24.57 21.8201 18.1755 13.7668 12.9765C12.8599 12.3905 13.7292 10.956 14.6407 11.5466C22.6564 16.7551 29.6761 23.5574 37.9503 28.3533C38.4107 28.6252 37.9878 29.3049 37.5227 29.0565ZM123.718 106.625C128.144 104.421 132.683 102.457 137.09 100.221C140.125 98.6832 143.024 96.8549 146.158 95.5328C138.734 91.9887 132.617 86.1568 125.903 81.525C125.822 81.4759 125.763 81.3966 125.741 81.3048C125.719 81.2129 125.734 81.1159 125.783 81.0351C125.832 80.9542 125.911 80.8963 126.003 80.8738C126.096 80.8514 126.193 80.8664 126.274 80.9155C134.214 84.7503 140.407 91.7871 148.756 94.9796C149.696 95.3406 149.226 96.8549 148.315 96.4704C148.16 96.4095 148.009 96.3392 147.845 96.2735C147.801 96.3829 147.733 96.4815 147.647 96.5625C147.561 96.6434 147.459 96.7048 147.347 96.7423C143.25 98.2472 139.491 100.676 135.516 102.471C131.719 104.182 127.853 105.753 123.972 107.258C123.6 107.417 123.351 106.803 123.718 106.625Z" fill="#EAEDD6"/>
<path d="M138.683 115.935C139.416 116.526 140.144 117.117 140.868 117.721L140.947 117.792C144.567 116.487 148.115 114.993 151.576 113.315C151.735 112.579 151.904 111.838 152.083 111.102C149.734 111.711 147.309 112.907 145.059 113.666C142.921 114.383 140.835 115.265 138.683 115.935Z" fill="#EAEDD6"/>
<path d="M133.312 111.636C133.979 112.18 134.65 112.721 135.323 113.258C141.643 110.774 147.807 107.337 153.84 104.234L153.948 104.192C154.18 103.407 154.415 102.626 154.653 101.848C151.002 103.549 147.478 105.504 143.738 107.004C140.185 108.368 136.705 109.914 133.312 111.636Z" fill="#EAEDD6"/>
<path d="M166.578 80.8311C152.013 76.0071 137.917 69.2751 124.131 62.6228C109.926 55.7783 95.777 48.8181 81.6845 41.7423C67.1722 34.4602 52.7883 26.9281 38.5329 19.1459C33.247 16.244 27.1859 14.0594 21.9846 11.0169C17.8733 8.61193 14.2789 6.32885 9.81058 4.56615C21.0871 11.1294 31.7764 18.8647 42.7005 25.9155C55.1329 33.9461 67.6405 41.9017 80.5944 49.0744C93.5483 56.2471 106.836 62.89 119.437 70.8128C126.015 74.9476 132.492 79.2466 138.866 83.7096C144.302 87.5257 150.143 91.7215 156.42 93.953C156.741 94.0622 157.023 94.2646 157.228 94.5343C157.521 94.642 157.775 94.8358 157.955 95.0901C158.136 95.3444 158.235 95.6474 158.239 95.959C158.244 96.2706 158.154 96.5764 157.981 96.8359C157.808 97.0954 157.56 97.2965 157.27 97.4127C156.359 102.148 155.569 106.883 154.827 111.627C156.138 108.814 157.458 106.053 158.675 103.277C161.87 95.9782 164.863 88.6695 167.179 81.0421L167.09 80.9155C166.916 80.9162 166.743 80.8877 166.578 80.8311Z" fill="#EAEDD6"/>
<path d="M141.873 118.626C142.573 119.292 143.236 119.995 143.884 120.703C146.168 119.732 148.437 118.72 150.72 117.754C150.857 116.929 151.007 116.099 151.167 115.274C149.654 115.865 148.094 116.362 146.59 116.971C145.059 117.633 143.482 118.186 141.873 118.626Z" fill="#EAEDD6"/>
<path d="M149.029 125.499C149.316 124.622 149.626 123.75 149.969 122.883C149.065 123.35 148.122 123.736 147.15 124.036C147.739 124.57 148.367 125.059 149.029 125.499Z" fill="#EAEDD6"/>
<path d="M144.725 121.622C145.195 122.142 145.665 122.658 146.186 123.155C147.587 122.52 148.946 121.798 150.255 120.994C150.307 120.525 150.368 120.089 150.434 119.634C149.583 119.967 148.681 120.201 147.845 120.506C146.807 120.886 145.773 121.27 144.725 121.622Z" fill="#EAEDD6"/>
<path d="M151.223 128.044C151.365 128.063 151.509 128.053 151.647 128.016C151.785 127.979 151.914 127.915 152.027 127.828C152.14 127.741 152.235 127.632 152.305 127.508C152.376 127.385 152.422 127.248 152.44 127.107C152.6 126.085 152.756 125.066 152.91 124.05C155.532 117.759 157.956 111.355 160.587 105.073C163.764 97.4831 166.733 89.6915 168.505 81.6328C168.703 81.6089 168.893 81.5365 169.057 81.422C169.221 81.3076 169.354 81.1545 169.444 80.9765C175.712 69.9877 186.913 62.3509 190.588 49.8432C190.931 48.6665 189.291 48.0102 188.746 48.9666C188.563 48.7628 188.337 48.6026 188.083 48.4978C181.252 45.5818 173.988 44.1613 166.738 42.7268C158.99 41.1985 151.374 38.9201 143.785 36.7402C127.942 32.1928 112.155 27.5 96.1889 23.3839C91.8036 22.2494 87.4183 21.1368 83.033 20.0461L83.7096 19.6241C83.9005 19.5055 84.0382 19.3179 84.094 19.1005C84.1499 18.8832 84.1196 18.6526 84.0094 18.457C83.8993 18.2613 83.7177 18.1155 83.5026 18.05C83.2875 17.9845 83.0553 18.0043 82.8544 18.1052C81.9886 18.4699 81.1501 18.8961 80.3454 19.3804L78.9358 19.0288C79.9264 18.4728 80.8694 17.8362 81.755 17.1254C82.4315 16.5675 81.5999 15.5831 80.8763 15.9487C79.4104 16.6847 77.9444 17.5286 76.4973 18.4193C67.4196 16.1816 58.3452 13.9688 49.2738 11.7811C41.789 9.95741 34.3747 7.83372 26.9556 5.74286C20.091 3.81139 12.5639 0.74073 5.34225 1.72053C5.27245 1.72611 5.2066 1.75508 5.15542 1.80275C5.10423 1.85042 5.07072 1.91397 5.06033 1.98306C4.9364 1.97496 4.81242 1.99821 4.6999 2.05066C4.58737 2.10311 4.48994 2.18305 4.41663 2.28309C4.30963 2.31026 4.21017 2.36121 4.12567 2.43212C4.04117 2.50303 3.97382 2.59205 3.92864 2.69257C3.88346 2.79309 3.86163 2.9025 3.86477 3.01262C3.86791 3.12273 3.89594 3.23073 3.94678 3.32852C9.00243 14.2516 17.5303 23.3793 23.6807 33.6929C30.4232 45.0192 37.2643 56.294 43.8 67.7468C49.988 78.5903 56.1384 89.5697 61.6545 100.769C64.5347 106.606 66.7477 112.63 68.9044 118.757C70.7133 123.914 71.9491 129.273 74.7964 134.003C74.8172 134.035 74.8408 134.064 74.8669 134.092C74.3735 134.889 75.5247 135.906 76.3751 135.217C81.5858 130.998 87.9289 128.583 94.037 126C100.695 123.188 107.216 119.972 113.794 116.967C118.855 114.651 123.943 112.391 128.985 110.038C131.837 113.676 135.563 116.516 138.988 119.578C142.221 122.456 144.382 126.277 148.287 128.391C148.446 128.477 148.619 128.532 148.799 128.555C148.979 128.715 149.194 128.83 149.427 128.892C149.66 128.953 149.904 128.959 150.14 128.91C150.376 128.86 150.597 128.756 150.785 128.606C150.973 128.455 151.123 128.263 151.223 128.044ZM158.67 103.287C157.453 106.062 156.133 108.842 154.822 111.636C155.565 106.892 156.354 102.157 157.266 97.4221C157.555 97.3059 157.803 97.1048 157.976 96.8453C158.149 96.5858 158.239 96.28 158.235 95.9684C158.23 95.6568 158.131 95.3538 157.951 95.0995C157.77 94.8451 157.516 94.6514 157.223 94.5436C157.018 94.2739 156.736 94.0715 156.415 93.9623C150.119 91.7308 144.298 87.5351 138.861 83.719C132.493 79.256 126.017 74.957 119.433 70.8222C106.831 62.8994 93.5906 56.2893 80.5897 49.0838C67.5888 41.8783 55.1282 33.9555 42.6958 25.9249C31.7764 18.8928 21.0824 11.1294 9.80588 4.57554C14.2742 6.34762 17.8686 8.62132 21.9799 11.0263C27.1812 14.0688 33.2564 16.2534 38.5282 19.1553C52.7648 26.9687 67.1487 34.5008 81.6798 41.7517C95.7755 48.815 109.924 55.7751 124.127 62.6322C137.917 69.2751 152.013 76.0072 166.578 80.8311C166.747 80.8893 166.925 80.9178 167.104 80.9155L167.194 81.0421C164.858 88.6649 161.88 95.9782 158.67 103.277V103.287ZM27.5007 8.19471C34.8523 10.5387 42.2635 12.6827 49.7343 14.6267C57.5104 16.6472 65.3006 18.6209 73.0908 20.6086C72.3061 21.129 71.5356 21.6587 70.7791 22.1791C70.2153 22.5635 70.7039 23.4871 71.3054 23.1167C72.4847 22.3901 73.7486 21.7431 75.0266 21.1009L76.9436 21.5931C75.4123 22.6896 73.7883 23.6512 72.09 24.4669C71.9949 24.5349 71.9255 24.6329 71.893 24.745C71.8604 24.8571 71.8666 24.9769 71.9105 25.0851C71.9544 25.1933 72.0336 25.2836 72.1351 25.3416C72.2367 25.3995 72.3549 25.4216 72.4706 25.4045C74.8721 24.5536 77.1891 23.4817 79.3916 22.2026C85.1113 23.6934 90.8373 25.181 96.5695 26.6656C112.098 30.7629 127.467 35.39 142.883 39.8811C150.462 42.0939 158.074 44.3723 165.817 45.9334C173.067 47.3961 180.312 48.8259 187.139 51.7653C187.298 51.832 187.466 51.8747 187.637 51.8919C183.197 61.9852 173.748 68.8251 167.861 78.084C167.737 77.989 167.601 77.9117 167.457 77.8542C153.479 72.4068 139.782 66.3779 126.213 60.0397C127.486 59.7678 128.755 59.4865 130.037 59.2427C133.279 58.6145 136.728 58.3801 139.871 57.3675C140.172 57.2738 140.017 56.8612 139.726 56.8987C134.844 57.8363 129.859 58.6145 124.954 59.4443L120.8 57.4941C122.938 57.0581 125.052 56.5096 127.214 56.1627C130.243 55.7336 133.23 55.0451 136.141 54.1047C136.181 54.0874 136.212 54.056 136.23 54.0166C136.248 53.9771 136.25 53.9325 136.237 53.8914C136.223 53.8504 136.195 53.8158 136.157 53.7946C136.119 53.7733 136.075 53.7669 136.033 53.7765C133.134 54.5969 130.15 54.911 127.171 55.3329C124.545 55.6986 122.003 56.3643 119.381 56.8284L116.407 55.422C121.575 54.4844 126.64 53.2374 131.781 52.2388C131.936 52.206 131.889 51.9435 131.729 51.9622C126.091 52.6092 120.537 53.7953 114.941 54.7188L111.342 53.0358C116.868 52.4562 122.322 51.3254 127.622 49.6604C127.876 49.5807 127.749 49.2244 127.495 49.276C121.641 50.4714 115.716 51.1887 109.857 52.3185L106.014 50.4433C111.452 49.7851 116.823 48.6541 122.064 47.0632C122.095 47.0561 122.122 47.0373 122.139 47.0108C122.156 46.9842 122.162 46.952 122.156 46.921C122.15 46.89 122.132 46.8625 122.106 46.8444C122.08 46.8264 122.048 46.8191 122.017 46.8241C116.158 47.1382 110.271 48.8165 104.454 49.6838L101.884 48.4321C106.841 47.4945 111.643 45.4974 116.698 45.2677C116.768 45.2677 116.835 45.24 116.884 45.1908C116.934 45.1416 116.961 45.0748 116.961 45.0052C116.961 44.9355 116.934 44.8688 116.884 44.8195C116.835 44.7703 116.768 44.7426 116.698 44.7426C114.093 44.8364 111.507 45.2313 108.993 45.9193C106.286 46.5804 103.458 46.9601 100.808 47.7946C100.771 47.8104 100.736 47.8309 100.704 47.8555L97.7113 46.3928C102.133 45.4552 106.436 44.0488 110.895 43.3597C111.229 43.3081 111.22 42.7971 110.872 42.8346C105.962 43.3737 101.108 44.7098 96.2547 45.6802L93.2288 44.1988C97.2356 43.6699 101.204 42.887 105.112 41.8548C105.581 41.7282 105.342 41.0391 104.886 41.161C100.587 42.3236 96.1795 42.8065 91.7864 43.505L89.3572 42.3095C92.7731 41.8079 96.1514 41.0766 99.5531 40.4859C99.9666 40.4156 99.9431 39.7593 99.5202 39.8296C95.705 40.4718 91.8991 41.1469 88.0651 41.6767L85.9696 40.65C88.7652 40.2327 91.5655 39.5764 94.3189 39.0467C94.629 38.9857 94.5303 38.4513 94.2202 38.5029C91.0628 39.0185 87.7785 39.2951 84.6493 40.003L81.91 38.6623C84.56 38.3153 87.1771 37.645 89.813 37.2137C90.1466 37.1574 90.1372 36.6323 89.7895 36.6745C86.7119 37.0824 83.6814 37.6121 80.5897 38.0106L79.7299 37.5887L78.1371 36.8058C79.7816 36.5995 81.4261 36.3042 83.0612 36.0885C83.3901 36.0416 83.3807 35.5353 83.033 35.5588C80.928 35.7088 78.8043 35.901 76.7134 36.1026L75.13 35.3197C76.0507 35.1779 76.961 34.9759 77.8551 34.7149C77.9441 34.682 78.0169 34.6158 78.058 34.5305C78.0991 34.4451 78.1054 34.3471 78.0755 34.2572C78.0457 34.1673 77.982 34.0924 77.898 34.0484C77.8139 34.0043 77.716 33.9946 77.6249 34.0211C76.3693 34.3646 75.0812 34.5767 73.7815 34.654L71.9444 33.7445L72.2028 33.7023C72.8277 33.6132 73.462 33.5335 74.0822 33.4632C74.1633 33.4507 74.237 33.4088 74.2891 33.3455C74.3411 33.2822 74.368 33.202 74.3645 33.1201C74.361 33.0383 74.3274 32.9606 74.2701 32.902C74.2128 32.8433 74.1359 32.8078 74.054 32.8022C72.8825 32.7564 71.7097 32.8445 70.5583 33.0647C59.2191 27.4391 47.9425 21.6666 36.7286 15.7471C27.496 10.8528 15.6462 4.49584 6.65784 2.54561C13.7809 3.04723 20.7723 6.05227 27.5007 8.19471ZM113.522 114.008C106.606 117.29 99.7269 120.619 92.7778 123.792C87.4402 126.235 81.9711 128.607 77.2725 132.085C74.5286 127.397 73.2881 122.053 71.4792 116.971C69.532 111.326 67.2812 105.789 64.7368 100.385C59.3334 89.1712 53.0186 78.2808 46.8493 67.4702C40.3183 56.022 33.3692 44.8223 26.514 33.5711C20.4904 23.6887 13.2499 14.6267 6.78001 5.02559C17.9908 13.1218 29.803 20.4961 41.305 28.2032C53.9489 36.6417 66.7759 44.827 80.0588 52.2576C93.0409 59.5147 106.202 66.2373 118.78 74.2163C125.358 78.3887 131.795 82.7673 138.147 87.2678C142.62 90.4369 147.356 93.6904 152.412 95.9782C146.609 98.1441 141.051 100.887 135.497 103.648C128.261 107.239 120.856 110.553 113.522 114.008ZM130.512 109.292C131.954 108.612 133.397 107.933 134.825 107.229C141.732 103.849 148.573 100.319 155.884 97.8862C155.673 98.5379 155.466 99.1989 155.259 99.8599C155.189 99.87 155.121 99.8905 155.057 99.9208C151.345 101.571 147.831 103.582 144.138 105.265C140.224 107.047 136.357 108.823 132.748 111.167C131.992 110.549 131.25 109.92 130.512 109.292ZM133.331 111.636C136.724 109.919 140.204 108.378 143.757 107.019C147.516 105.504 151.021 103.549 154.672 101.862C154.434 102.64 154.199 103.421 153.967 104.206L153.859 104.248C147.826 107.351 141.643 110.811 135.342 113.272C134.659 112.71 133.983 112.164 133.312 111.636H133.331ZM135.835 113.652C138.98 112.585 142.063 111.342 145.068 109.93C147.793 108.669 150.673 107.586 153.37 106.268C153.084 107.295 152.807 108.322 152.539 109.358C150.147 109.705 147.934 111.144 145.684 111.988C143.062 112.977 140.651 114.374 138.086 115.452C137.32 114.829 136.568 114.233 135.817 113.633L135.835 113.652ZM140.868 117.731C140.144 117.126 139.416 116.535 138.683 115.945C140.835 115.274 142.911 114.393 145.059 113.676C147.309 112.916 149.757 111.721 152.083 111.111C151.904 111.847 151.735 112.588 151.576 113.324C148.115 115.002 144.567 116.497 140.947 117.801L140.868 117.731ZM149.029 125.508C148.356 125.069 147.716 124.58 147.117 124.045C148.089 123.746 149.032 123.36 149.936 122.892C149.626 123.75 149.316 124.622 149.029 125.499V125.508ZM150.255 121.003C148.946 121.808 147.587 122.529 146.186 123.164C145.684 122.667 145.204 122.152 144.725 121.631C145.773 121.28 146.807 120.895 147.845 120.515C148.681 120.211 149.583 119.976 150.434 119.643C150.368 120.075 150.307 120.544 150.255 121.012V121.003ZM143.884 120.712C143.236 120.004 142.573 119.306 141.873 118.635C143.476 118.194 145.046 117.641 146.572 116.981C148.075 116.371 149.635 115.874 151.148 115.284C150.988 116.109 150.838 116.938 150.702 117.764C148.437 118.72 146.168 119.732 143.884 120.703V120.712Z" fill="black"/>
<path d="M448.713 129.695C424.43 124.233 397.155 124.252 373.244 131.434C363.142 134.467 352.947 139.371 345.805 147.322C343.485 147.115 341.156 147.034 338.827 147.078C328.218 147.265 317.538 149.75 307.756 153.786C302.348 156.013 297.311 159.131 292.147 161.845C285.402 165.457 278.461 168.692 271.356 171.535C257.937 176.786 241.971 180.71 228.172 174.568C225.429 173.346 222.865 171.758 220.55 169.848C232.551 165.16 243.071 155.432 244.762 142.226C246.299 130.201 235.365 119.981 223.44 121.284C214.16 122.297 209.626 131.598 208.17 139.788C206.572 148.78 207.573 159.614 213.07 167.199C213.39 167.64 213.723 168.066 214.062 168.488C213.291 168.704 212.522 168.901 211.755 169.079C199.539 171.892 185.443 169.674 174.472 163.758C163.289 157.701 155.612 147.078 151.806 135.076C151.425 133.867 149.522 134.336 149.884 135.569C153.826 148.901 162.171 160.19 174.495 166.894C186.928 173.654 202.762 175.183 216.312 171.277L216.58 171.198C224.859 179.2 237.099 182.074 248.427 181.174C263.138 180.007 277.14 173.711 290.136 167.11C300.473 161.864 309.992 156.093 321.344 153.243C328.274 151.503 335.712 150.43 342.995 150.8C336.854 159.539 334.481 171.099 338.809 181.141C343.902 192.946 359.543 193.438 368.729 186.228C378.051 178.91 373.958 163.477 366.934 156.06C362.513 151.372 356.442 148.967 350.123 147.851C350.401 147.573 350.683 147.301 350.968 147.036C358.956 139.643 369.763 135.714 380.151 133.206C401.812 127.983 425.972 128.251 447.674 133.164C449.972 133.717 451.015 130.21 448.713 129.695ZM214.353 162.394C212.084 158.067 211.252 152.98 211.092 148.151C210.824 139.924 213.042 127.524 222.369 124.974C226.856 123.741 231.973 125.719 235.675 128.162C240.942 131.64 242.15 138.255 241.008 144.054C238.748 155.53 228.524 163.341 217.83 167.269C216.464 165.802 215.295 164.163 214.353 162.394ZM354.107 152.717C364.575 155.933 373.009 167.1 369.767 178.384C367.723 185.506 358.528 187.939 352.03 187.259C345.664 186.598 341.957 181.089 340.646 175.337C338.682 166.688 341.75 157.992 347.13 151.213C349.493 151.523 351.826 152.027 354.107 152.717Z" fill="black"/>
<path d="M110.266 122.016C104.581 124.022 98.8389 125.653 93.2899 128.049C87.0173 130.759 81.0455 134.331 74.9655 137.425C74.9036 137.456 74.8453 137.494 74.7917 137.538C72.8512 134.162 71.8645 130.276 70.3093 126.713C68.397 122.325 66.1557 118.073 64.1166 113.741C59.9113 104.796 56.4908 95.4578 51.8486 86.7052C51.7453 86.5177 51.4258 86.6396 51.4962 86.8459C54.461 95.8844 58.3608 104.689 62.3029 113.343C64.2904 117.735 66.4001 122.076 68.4111 126.469C70.2576 130.459 71.296 134.908 73.5795 138.658C73.6374 138.752 73.7147 138.833 73.8061 138.896C73.8976 138.958 74.0012 139.001 74.1102 139.021C74.2192 139.041 74.3313 139.038 74.439 139.011C74.5467 138.985 74.6476 138.937 74.7353 138.869C74.872 139.027 75.0577 139.135 75.2628 139.176C75.4679 139.216 75.6807 139.188 75.8677 139.094C81.3838 136.548 86.5475 133.328 91.9273 130.52C97.9052 127.46 104.053 124.743 110.341 122.381C110.571 122.283 110.491 121.95 110.266 122.016Z" fill="black"/>
<path d="M106.244 126.347C100.328 127.683 95.0895 131.143 89.6344 133.67C83.8223 136.347 78.0713 139.272 72.5035 142.371C72.4269 142.414 72.3559 142.466 72.2921 142.526C70.7697 140.116 70.1636 137.369 69.4118 134.612C68.5661 131.513 67.0297 128.771 65.5637 125.93C62.0144 119.063 58.8429 112.008 56.0632 104.796C56.0476 104.759 56.0188 104.728 55.9823 104.71C55.9457 104.692 55.9038 104.688 55.8643 104.698C55.8248 104.708 55.7904 104.732 55.7674 104.766C55.7444 104.8 55.7343 104.84 55.739 104.881C56.8056 112.203 60.2402 119.175 63.5668 125.71C65.2865 129.094 67.0015 132.273 68.0352 135.962C68.848 138.827 69.6609 141.588 71.4604 143.988C71.5209 144.062 71.5963 144.122 71.6817 144.165C71.7671 144.208 71.8606 144.232 71.956 144.236C72.0514 144.24 72.1466 144.223 72.2353 144.188C72.324 144.153 72.4042 144.099 72.4706 144.031C72.6124 144.134 72.7819 144.194 72.9575 144.201C73.1332 144.209 73.3071 144.164 73.4573 144.073C78.6774 141.18 84.0432 138.386 89.4324 135.808C95.0707 133.126 100.516 129.244 106.554 127.622C106.723 127.581 106.87 127.475 106.96 127.326C107.051 127.178 107.079 126.999 107.038 126.83C106.997 126.661 106.89 126.515 106.741 126.425C106.592 126.334 106.413 126.306 106.244 126.347Z" fill="black"/>
<path d="M147.356 96.7658C147.468 96.7282 147.571 96.6668 147.657 96.5859C147.743 96.505 147.81 96.4064 147.854 96.297C148.009 96.3626 148.16 96.4329 148.324 96.4939C149.264 96.8642 149.696 95.3641 148.766 95.0031C140.416 91.7918 134.224 84.755 126.283 80.939C126.202 80.8899 126.105 80.8749 126.013 80.8973C125.921 80.9197 125.841 80.9777 125.792 81.0585C125.743 81.1393 125.728 81.2364 125.75 81.3282C125.773 81.4201 125.831 81.4993 125.912 81.5484C132.626 86.1567 138.744 92.0121 146.168 95.5563C143.034 96.8877 140.135 98.716 137.099 100.244C132.692 102.48 128.172 104.464 123.727 106.648C123.37 106.826 123.61 107.455 123.99 107.304C127.871 105.786 131.738 104.229 135.535 102.518C139.5 100.699 143.259 98.2706 147.356 96.7658Z" fill="black"/>
<path d="M37.9503 28.3533C29.6808 23.5574 22.6565 16.7551 14.6407 11.5466C13.7292 10.956 12.86 12.3905 13.7668 12.9765C21.8201 18.1755 29.0183 24.57 37.5227 29.0565C37.9879 29.3049 38.4107 28.6252 37.9503 28.3533Z" fill="black"/>
<path d="M7.85131 12.1936C5.50202 8.20407 2.88962 4.28957 0.869243 0.12659C0.742382 -0.131252 0.333607 0.0422027 0.399387 0.314109C1.47536 4.38801 4.07366 8.19939 6.12223 11.8467C8.50441 16.0987 11.4551 19.9992 13.6023 24.3872C13.9923 25.1888 15.1529 24.5137 14.7958 23.7168C12.9774 19.6101 10.116 16.0612 7.85131 12.1936Z" fill="black"/>
<path d="M6.66257 14.411C4.63279 11.4529 1.70559 8.40097 0.639015 4.92714C0.611488 4.8498 0.555921 4.78557 0.48327 4.7471C0.410619 4.70863 0.326159 4.69871 0.246542 4.7193C0.166926 4.7399 0.0979302 4.78951 0.0531646 4.85835C0.00839899 4.92719 -0.0088872 5.01029 0.00470996 5.09122C0.42758 8.06344 2.57482 10.6606 4.16763 13.1171C6.40415 16.5582 8.71114 19.9335 10.8349 23.4308C11.3376 24.2606 12.6673 23.5199 12.1505 22.6948C10.3932 19.8913 8.54199 17.1535 6.66257 14.411Z" fill="black"/>
<path d="M172.578 67.5687C170.247 70.2449 168.151 73.1168 166.315 76.1525C166.247 76.2764 166.23 76.4216 166.267 76.5578C166.304 76.6941 166.392 76.8108 166.513 76.8839C166.634 76.9569 166.779 76.9806 166.917 76.9501C167.055 76.9195 167.176 76.837 167.255 76.7197C169.331 73.1709 172.127 69.6549 174.796 66.5467C177.122 63.8464 180.021 61.4789 181.797 58.3614C181.832 58.2927 181.839 58.2135 181.818 58.1395C181.797 58.0655 181.748 58.0023 181.682 57.9625C181.616 57.9227 181.538 57.9093 181.462 57.9251C181.387 57.9408 181.32 57.9845 181.275 58.0473C178.921 61.5539 175.327 64.3246 172.578 67.5687Z" fill="black"/>
<path d="M164.097 75.0086C164.023 75.1329 164.002 75.2816 164.037 75.4218C164.073 75.562 164.163 75.6824 164.288 75.7564C164.412 75.8303 164.561 75.8519 164.702 75.8163C164.842 75.7807 164.963 75.6908 165.037 75.5665C168.697 69.8658 173.584 64.8684 178.193 59.9225C178.456 59.6412 178.057 59.2193 177.775 59.4912C172.869 64.2449 167.696 69.1673 164.097 75.0086Z" fill="black"/>
<path d="M162.114 74.446C161.682 75.0461 162.669 75.6415 163.096 75.0414C166.409 70.405 169.829 64.8918 174.373 61.3242C174.49 61.2305 174.373 61.043 174.232 61.0758C172.094 61.6149 170.003 64.5965 168.594 66.1623C166.281 68.801 164.118 71.5665 162.114 74.446Z" fill="black"/>
<path d="M159.667 73.0115C159.375 73.6116 160.23 74.1554 160.559 73.5553C161.579 71.7035 163.27 70.0909 164.652 68.4875C166.376 66.4951 168.274 64.648 170.168 62.8197C170.487 62.5103 170.022 62.0321 169.698 62.3228C167.706 64.062 165.789 65.8576 163.98 67.7843C162.5 69.3548 160.625 71.0566 159.667 73.0115Z" fill="black"/>
<path d="M158.962 73.1615C160.644 69.7861 163.989 67.2733 165.54 63.7854C165.546 63.7744 165.55 63.7617 165.549 63.7488C165.549 63.7359 165.545 63.7234 165.537 63.7129C165.53 63.7024 165.519 63.6943 165.507 63.6897C165.495 63.6851 165.482 63.6841 165.469 63.687C164.595 63.8182 163.317 65.9747 162.824 66.5654C161.255 68.4406 159.14 70.3862 158.125 72.6599C157.862 73.2178 158.675 73.7381 158.962 73.1615Z" fill="black"/>
<path d="M156.861 72.163C157.627 71.3144 158.125 70.2877 158.811 69.3501C159.723 68.1312 160.545 66.8561 161.49 65.656C161.724 65.3512 161.212 64.9434 160.959 65.2341C159.258 67.2312 157.839 69.4533 156.204 71.4691C155.837 71.9473 156.448 72.6271 156.861 72.163Z" fill="black"/>
<path d="M182.215 67.2546C179.974 69.5611 177.986 72.1254 175.783 74.5023C173.706 76.7713 171.446 79.2653 170.008 82.0031C169.953 82.1083 169.935 82.2287 169.956 82.3454C169.078 85.1582 168.246 88.0038 167.414 90.8401C166.747 93.1372 165.831 95.3547 165.62 97.755C165.62 97.9612 165.948 98.0175 165.986 97.8112C166.954 92.7247 169.275 87.4694 171.07 82.6079C171.105 82.5077 171.105 82.3986 171.07 82.2985C174.063 76.8604 179.18 72.7677 182.492 67.503C182.518 67.4655 182.529 67.4199 182.524 67.3748C182.518 67.3296 182.497 67.288 182.463 67.2576C182.429 67.2272 182.385 67.2102 182.339 67.2096C182.294 67.2091 182.25 67.225 182.215 67.2546Z" fill="black"/>
</g>
<defs>
<clipPath id="clip0_8_118">
<rect width="450" height="191" fill="white"/>
</clipPath>
</defs>
</svg>
