<svg width="529" height="134" viewBox="0 0 529 134" fill="none" xmlns="http://www.w3.org/2000/svg">
<path d="M37.5 58.8V69.54H37.26C36.06 68.7 31.08 61.32 26.4 61.32H23.16V92.94C23.16 96.78 24.36 100.74 24.6 101.76V102H13.8V101.76C13.98 100.74 15.24 96.78 15.24 92.94V61.32H11.94C7.26 61.32 2.28 68.7 1.08 69.54H0.84V58.8H37.5ZM53.423 97.56C56.663 97.56 59.603 96.42 63.023 93.6L63.263 93.78C61.463 98.16 56.903 102.54 50.123 102.54C42.683 102.54 35.483 97.2 35.483 87C35.483 77.46 41.663 71.58 50.183 71.58C59.303 71.58 63.503 78.42 63.503 86.22H43.703C44.183 92.76 47.183 97.56 53.423 97.56ZM50.063 73.8C45.383 73.8 43.583 79.14 43.643 84.6V84.72L55.943 83.28C55.823 78.24 54.203 73.8 50.063 73.8ZM67.0819 102V101.76C67.3219 100.74 68.5219 96.78 68.5219 92.94V67.26C68.5219 63.48 67.2619 59.58 66.9019 58.62V58.38L76.0219 57.24V92.94C76.0219 96.78 77.2219 100.74 77.4619 101.76V102H67.0819ZM98.5402 97.56C101.78 97.56 104.72 96.42 108.14 93.6L108.38 93.78C106.58 98.16 102.02 102.54 95.2402 102.54C87.8002 102.54 80.6002 97.2 80.6002 87C80.6002 77.46 86.7802 71.58 95.3002 71.58C104.42 71.58 108.62 78.42 108.62 86.22H88.8202C89.3002 92.76 92.3002 97.56 98.5402 97.56ZM95.1802 73.8C90.5002 73.8 88.7002 79.14 88.7602 84.6V84.72L101.06 83.28C100.94 78.24 99.3202 73.8 95.1802 73.8ZM131.212 96.48C136.972 96.48 140.512 99.54 140.512 104.76C140.512 112.56 131.632 114 125.392 114C120.892 114 112.072 113.04 112.072 107.04C112.072 105.12 112.972 103.38 114.472 102.06C112.912 100.86 112.432 99.12 112.432 97.5C112.432 94.08 114.592 92.04 117.892 91.14C114.712 89.4 112.252 86.4 112.252 82.14C112.252 75.18 118.972 71.58 124.912 71.58C127.252 71.58 129.652 72.12 131.752 73.2C133.432 69.84 136.432 67.68 140.872 68.34L139.732 74.28L139.612 74.34C137.752 73.32 135.472 72.9 132.952 73.86C135.652 75.6 137.632 78.36 137.632 82.14C137.632 89.22 130.792 92.82 124.912 92.82C123.172 92.82 121.372 92.52 119.692 91.92C118.312 92.4 117.112 93.3 117.112 94.5C117.112 96.24 119.212 96.48 121.432 96.48H131.212ZM124.912 73.74C121.552 73.74 119.632 77.46 119.632 82.2C119.632 86.94 121.552 90.66 124.912 90.66C128.272 90.66 130.252 86.94 130.252 82.2C130.252 77.46 128.272 73.74 124.912 73.74ZM126.112 111.66C131.272 111.66 135.592 109.8 135.592 106.98C135.592 105.18 134.272 103.74 130.972 103.74H120.892C119.152 103.74 117.712 103.5 116.572 103.14C116.512 103.62 116.512 104.1 116.512 104.7C116.452 108.6 119.332 111.66 126.112 111.66ZM152.663 77.34C154.943 73.02 159.202 70.02 164.963 71.88L163.823 80.04H163.583C160.943 77.46 156.562 75.78 152.663 78.96V92.94C152.663 96.78 153.863 100.74 154.043 101.76V102H143.723V101.76C143.963 100.74 145.163 96.78 145.163 92.94V81C145.163 77.16 143.963 73.2 143.723 72.18V71.94H152.663V77.34ZM197.206 98.1L197.326 98.28C196.726 100.68 194.746 102.36 191.866 102.36C188.806 102.36 186.766 100.68 186.106 97.8C184.486 100.14 181.546 102.48 176.986 102.48C170.686 102.48 167.326 97.92 167.326 93.24C167.326 86.7 174.166 82.8 182.026 83.82C183.406 83.94 184.846 84.24 185.926 84.6V80.88C185.926 76.44 184.306 74.04 181.906 74.04C178.246 74.04 170.806 80.04 169.726 81.54H169.426V73.86C174.286 72.36 179.026 71.58 182.326 71.58C189.766 71.58 193.426 75.48 193.426 81.24V94.68C193.426 97.92 194.626 99.18 197.206 98.1ZM180.946 98.4C182.806 98.4 184.486 97.5 185.926 95.88V95.76V86.34C185.626 86.34 185.266 86.34 184.906 86.28C178.486 85.26 175.186 88.44 175.186 92.28C175.186 95.82 177.646 98.4 180.946 98.4ZM245.333 92.94C245.333 96.78 246.533 100.74 246.773 101.76V102H236.453V101.76C236.693 100.74 237.893 96.78 237.893 92.94V82.68C237.893 78.3 235.073 76.5 232.133 76.5C230.333 76.5 228.652 77.28 226.853 78.72C227.033 79.62 227.153 80.64 227.153 81.72V92.94C227.153 96.78 228.353 100.74 228.593 101.76V102H218.333V101.76C218.573 100.74 219.773 96.78 219.773 92.94V82.68C219.773 78.3 216.893 76.5 213.893 76.5C212.213 76.5 210.533 77.22 208.853 78.54V92.94C208.853 96.78 210.053 100.74 210.233 101.76V102H199.973V101.76C200.213 100.74 201.413 96.78 201.413 92.94V81C201.413 77.16 200.213 73.2 199.973 72.18V71.94H208.853V76.68C211.133 73.56 214.073 71.58 217.973 71.58C221.693 71.58 225.113 73.38 226.493 77.4C228.953 73.86 231.953 71.58 236.093 71.58C241.013 71.58 245.333 74.64 245.333 81.72V92.94Z" fill="#415124"/>
<path d="M20.05 22.4V22.52C19.75 23.03 18.43 24.8 17.59 26.51L12.73 35.81V39.47C12.73 41.39 13.33 43.37 13.45 43.88V44H8.02V43.88C8.11 43.37 8.71 41.39 8.71 39.47V35.9L3.76 26.48C2.89 24.77 1.66 23.03 1.33 22.52V22.4H7.54V22.52C7.36 23.09 7.24 25.07 8.2 26.96L11.95 34.58L15.52 27.53C16.6 25.43 16.36 23.18 16.12 22.52V22.4H20.05ZM25.7463 44.27C21.6063 44.27 18.1263 41.51 18.1263 36.44C18.1263 31.43 21.6063 28.79 25.7463 28.79C29.8563 28.79 33.3963 31.43 33.3963 36.44C33.3963 41.51 29.8563 44.27 25.7463 44.27ZM25.7463 43.13C28.0863 43.13 29.2263 39.86 29.2263 36.44C29.2263 33.08 28.0863 29.9 25.7463 29.9C23.3763 29.9 22.2963 33.11 22.2963 36.44C22.2963 39.83 23.3463 43.13 25.7463 43.13ZM49.1055 39.47C49.1055 41.39 49.7055 43.37 49.8255 43.88V44H46.1655C45.9555 43.49 45.6855 42.44 45.5355 41.36C44.3355 43.13 42.8055 44.24 40.6455 44.24C38.0655 44.24 35.7255 42.71 35.7255 39.17V33.5C35.7255 31.58 35.1255 29.6 35.0055 29.09V28.97H39.4755V38.69C39.4755 40.94 40.7955 41.81 42.2955 41.81C43.3455 41.81 44.4255 41.36 45.4455 40.58C45.4155 40.25 45.3855 39.95 45.3855 39.65V33.5C45.3855 31.58 44.7555 29.6 44.6655 29.09V28.97H49.1055V39.47ZM65.4072 44.27C61.6872 44.27 58.0872 41.66 58.0872 36.5C58.0872 31.61 61.2072 28.79 65.5272 28.79C67.8072 28.79 69.7872 29.66 71.0472 30.2L71.1072 34.34H70.9572C69.9072 32.6 67.8672 29.9 65.6172 29.9C63.2472 29.9 62.1372 32.51 62.1672 35.45C62.1972 39.2 63.7872 41.78 67.0572 41.78C68.3772 41.78 69.9672 41.33 71.7072 39.95L71.7972 40.01C70.8672 42.26 68.6172 44.27 65.4072 44.27ZM88.2358 42.05L88.2958 42.14C87.9958 43.34 87.0058 44.18 85.5658 44.18C84.0358 44.18 83.0158 43.34 82.6858 41.9C81.8758 43.07 80.4058 44.24 78.1258 44.24C74.9758 44.24 73.2958 41.96 73.2958 39.62C73.2958 36.35 76.7158 34.4 80.6458 34.91C81.3358 34.97 82.0558 35.12 82.5958 35.3V33.44C82.5958 31.22 81.7858 30.02 80.5858 30.02C78.7558 30.02 75.0358 33.02 74.4958 33.77H74.3458V29.93C76.7758 29.18 79.1458 28.79 80.7958 28.79C84.5158 28.79 86.3458 30.74 86.3458 33.62V40.34C86.3458 41.96 86.9458 42.59 88.2358 42.05ZM80.1058 42.2C81.0358 42.2 81.8758 41.75 82.5958 40.94V40.88V36.17C82.4458 36.17 82.2658 36.17 82.0858 36.14C78.8758 35.63 77.2258 37.22 77.2258 39.14C77.2258 40.91 78.4558 42.2 80.1058 42.2ZM103.839 39.47C103.839 41.39 104.439 43.37 104.559 43.88V44H99.3991V43.88C99.4891 43.37 100.119 41.39 100.119 39.47V34.34C100.119 32.09 98.7391 31.19 97.2391 31.16C96.1291 31.16 95.0791 31.64 94.0891 32.48V39.47C94.0891 41.39 94.6891 43.37 94.7791 43.88V44H89.6191V43.88C89.7391 43.37 90.3391 41.39 90.3391 39.47V33.5C90.3391 31.58 89.7391 29.6 89.6191 29.09V28.97H94.0891V31.55C95.1991 29.9 96.7891 28.79 98.9191 28.79C101.499 28.79 103.839 30.32 103.839 33.86V39.47ZM120.222 44.27C116.502 44.27 112.902 41.66 112.902 36.5C112.902 31.61 116.022 28.79 120.342 28.79C122.622 28.79 124.602 29.66 125.862 30.2L125.922 34.34H125.772C124.722 32.6 122.682 29.9 120.432 29.9C118.062 29.9 116.952 32.51 116.982 35.45C117.012 39.2 118.602 41.78 121.872 41.78C123.192 41.78 124.782 41.33 126.522 39.95L126.612 40.01C125.682 42.26 123.432 44.27 120.222 44.27ZM135.61 44.27C131.47 44.27 127.99 41.51 127.99 36.44C127.99 31.43 131.47 28.79 135.61 28.79C139.72 28.79 143.26 31.43 143.26 36.44C143.26 41.51 139.72 44.27 135.61 44.27ZM135.61 43.13C137.95 43.13 139.09 39.86 139.09 36.44C139.09 33.08 137.95 29.9 135.61 29.9C133.24 29.9 132.16 33.11 132.16 36.44C132.16 39.83 133.21 43.13 135.61 43.13ZM159.064 39.47C159.064 41.39 159.664 43.37 159.784 43.88V44H154.624V43.88C154.714 43.37 155.344 41.39 155.344 39.47V34.34C155.344 32.09 153.964 31.19 152.464 31.16C151.354 31.16 150.304 31.64 149.314 32.48V39.47C149.314 41.39 149.914 43.37 150.004 43.88V44H144.844V43.88C144.964 43.37 145.564 41.39 145.564 39.47V33.5C145.564 31.58 144.964 29.6 144.844 29.09V28.97H149.314V31.55C150.424 29.9 152.014 28.79 154.144 28.79C156.724 28.79 159.064 30.32 159.064 33.86V39.47ZM168.744 41.75C169.404 41.75 170.304 41.57 171.234 41C170.514 42.77 169.044 44.27 166.734 44.27C164.304 44.27 162.894 42.56 162.894 39.77V30.2H160.704V29.15C163.584 28.04 165.144 26.3 166.404 24.23H166.644V28.97H170.754V30.2H166.644V39.38C166.644 41 167.454 41.75 168.744 41.75ZM187.464 42.05L187.524 42.14C187.224 43.34 186.234 44.18 184.794 44.18C183.264 44.18 182.244 43.34 181.914 41.9C181.104 43.07 179.634 44.24 177.354 44.24C174.204 44.24 172.524 41.96 172.524 39.62C172.524 36.35 175.944 34.4 179.874 34.91C180.564 34.97 181.284 35.12 181.824 35.3V33.44C181.824 31.22 181.014 30.02 179.814 30.02C177.984 30.02 174.264 33.02 173.724 33.77H173.574V29.93C176.004 29.18 178.374 28.79 180.024 28.79C183.744 28.79 185.574 30.74 185.574 33.62V40.34C185.574 41.96 186.174 42.59 187.464 42.05ZM179.334 42.2C180.264 42.2 181.104 41.75 181.824 40.94V40.88V36.17C181.674 36.17 181.494 36.17 181.314 36.14C178.104 35.63 176.454 37.22 176.454 39.14C176.454 40.91 177.684 42.2 179.334 42.2ZM195.661 44.27C191.941 44.27 188.341 41.66 188.341 36.5C188.341 31.61 191.461 28.79 195.781 28.79C198.061 28.79 200.041 29.66 201.301 30.2L201.361 34.34H201.211C200.161 32.6 198.121 29.9 195.871 29.9C193.501 29.9 192.391 32.51 192.421 35.45C192.451 39.2 194.041 41.78 197.311 41.78C198.631 41.78 200.221 41.33 201.961 39.95L202.051 40.01C201.121 42.26 198.871 44.27 195.661 44.27ZM211.225 41.75C211.885 41.75 212.785 41.57 213.715 41C212.995 42.77 211.525 44.27 209.215 44.27C206.785 44.27 205.375 42.56 205.375 39.77V30.2H203.185V29.15C206.065 28.04 207.625 26.3 208.885 24.23H209.125V28.97H213.235V30.2H209.125V39.38C209.125 41 209.935 41.75 211.225 41.75ZM244.604 39.47C244.604 41.39 245.204 43.37 245.324 43.88V44H240.164V43.88C240.284 43.37 240.884 41.39 240.884 39.47V34.34C240.884 32.15 239.474 31.25 238.004 31.25C237.104 31.25 236.264 31.64 235.364 32.36C235.454 32.81 235.514 33.32 235.514 33.86V39.47C235.514 41.39 236.114 43.37 236.234 43.88V44H231.104V43.88C231.224 43.37 231.824 41.39 231.824 39.47V34.34C231.824 32.15 230.384 31.25 228.884 31.25C228.044 31.25 227.204 31.61 226.364 32.27V39.47C226.364 41.39 226.964 43.37 227.054 43.88V44H221.924V43.88C222.044 43.37 222.644 41.39 222.644 39.47V33.5C222.644 31.58 222.044 29.6 221.924 29.09V28.97H226.364V31.34C227.504 29.78 228.974 28.79 230.924 28.79C232.784 28.79 234.494 29.69 235.184 31.7C236.414 29.93 237.914 28.79 239.984 28.79C242.444 28.79 244.604 30.32 244.604 33.86V39.47ZM255.876 41.78C257.496 41.78 258.966 41.21 260.676 39.8L260.796 39.89C259.896 42.08 257.616 44.27 254.226 44.27C250.506 44.27 246.906 41.6 246.906 36.5C246.906 31.73 249.996 28.79 254.256 28.79C258.816 28.79 260.916 32.21 260.916 36.11H251.016C251.256 39.38 252.756 41.78 255.876 41.78ZM254.196 29.9C251.856 29.9 250.956 32.57 250.986 35.3V35.36L257.136 34.64C257.076 32.12 256.266 29.9 254.196 29.9ZM276.82 44.27C272.68 44.27 269.2 41.51 269.2 36.44C269.2 31.43 272.68 28.79 276.82 28.79C280.93 28.79 284.47 31.43 284.47 36.44C284.47 41.51 280.93 44.27 276.82 44.27ZM276.82 43.13C279.16 43.13 280.3 39.86 280.3 36.44C280.3 33.08 279.16 29.9 276.82 29.9C274.45 29.9 273.37 33.11 273.37 36.44C273.37 39.83 274.42 43.13 276.82 43.13ZM300.275 39.47C300.275 41.39 300.875 43.37 300.995 43.88V44H295.835V43.88C295.925 43.37 296.555 41.39 296.555 39.47V34.34C296.555 32.09 295.175 31.19 293.675 31.16C292.565 31.16 291.515 31.64 290.525 32.48V39.47C290.525 41.39 291.125 43.37 291.215 43.88V44H286.055V43.88C286.175 43.37 286.775 41.39 286.775 39.47V33.5C286.775 31.58 286.175 29.6 286.055 29.09V28.97H290.525V31.55C291.635 29.9 293.225 28.79 295.355 28.79C297.935 28.79 300.275 30.32 300.275 33.86V39.47Z" fill="#415124"/>
</svg>
