<svg width="364" height="38" viewBox="0 0 364 38" fill="none" xmlns="http://www.w3.org/2000/svg">
<path d="M24.6836 1.2V8.36H24.5236C23.7236 7.8 20.4036 2.88 17.2836 2.88H15.1236V23.96C15.1236 26.52 15.9236 29.16 16.0836 29.84V30H8.88359V29.84C9.00359 29.16 9.84359 26.52 9.84359 23.96V2.88H7.64359C4.52359 2.88 1.20359 7.8 0.403594 8.36H0.243594V1.2H24.6836ZM45.5933 23.96C45.5933 26.52 46.3933 29.16 46.5533 29.84V30H39.6733V29.84C39.7933 29.16 40.6333 26.52 40.6333 23.96V17.12C40.6333 14.12 38.7533 12.92 36.6333 12.92C35.2333 12.92 33.8733 13.48 32.5933 14.44V23.96C32.5933 26.52 33.3933 29.16 33.5533 29.84V30H26.6733V29.84C26.7933 29.16 27.6333 26.52 27.6333 23.96V6.84C27.6333 4.32 26.7933 1.72 26.5533 1.08V0.919998L32.5933 0.159998V13.24C34.2333 11.08 36.3533 9.72 39.0333 9.72C42.4733 9.72 45.5933 11.76 45.5933 16.48V23.96ZM68.8495 27.4L68.9295 27.52C68.5295 29.12 67.2095 30.24 65.2895 30.24C63.2495 30.24 61.8895 29.12 61.4495 27.2C60.3695 28.76 58.4095 30.32 55.3695 30.32C51.1695 30.32 48.9295 27.28 48.9295 24.16C48.9295 19.8 53.4895 17.2 58.7295 17.88C59.6495 17.96 60.6095 18.16 61.3295 18.4V15.92C61.3295 12.96 60.2495 11.36 58.6495 11.36C56.2095 11.36 51.2495 15.36 50.5295 16.36H50.3295V11.24C53.5695 10.24 56.7295 9.72 58.9295 9.72C63.8895 9.72 66.3295 12.32 66.3295 16.16V25.12C66.3295 27.28 67.1295 28.12 68.8495 27.4ZM58.0095 27.6C59.2495 27.6 60.3695 27 61.3295 25.92V25.84V19.56C61.1295 19.56 60.8895 19.56 60.6495 19.52C56.3695 18.84 54.1695 20.96 54.1695 23.52C54.1695 25.88 55.8095 27.6 58.0095 27.6ZM89.6539 23.96C89.6539 26.52 90.4539 29.16 90.6139 29.84V30H83.7339V29.84C83.8539 29.16 84.6939 26.52 84.6939 23.96V17.12C84.6939 14.12 82.8539 12.92 80.8539 12.88C79.3739 12.88 77.9739 13.52 76.6539 14.64V23.96C76.6539 26.52 77.4539 29.16 77.5739 29.84V30H70.6939V29.84C70.8539 29.16 71.6539 26.52 71.6539 23.96V16C71.6539 13.44 70.8539 10.8 70.6939 10.12V9.96H76.6539V13.4C78.1339 11.2 80.2539 9.72 83.0939 9.72C86.5339 9.72 89.6539 11.76 89.6539 16.48V23.96ZM99.1967 0.159998V23.96C99.1967 26.52 99.9967 29.16 100.157 29.84V30H93.2367V29.84C93.3967 29.16 94.1967 26.52 94.1967 23.96V6.84C94.1967 4.32 93.3567 1.72 93.1167 1.08V0.919998L99.1967 0.159998ZM104.277 17.4L112.877 29.84V30H106.917L99.8767 19.36L99.8367 19.28L104.197 15.44C106.597 13.32 106.357 11 105.917 10.12V9.96H112.597V10.16L104.277 17.4ZM122.446 30.36C120.486 30.36 117.806 29.84 114.726 28.56V23.44H114.886C117.086 25.8 119.766 28.76 122.766 28.76C124.446 28.76 126.166 27.84 126.166 25.92C126.166 23.92 124.246 23.2 120.966 22.08C116.846 20.64 114.366 18.88 114.366 15.64C114.366 11.92 117.646 9.72 122.326 9.72C124.166 9.72 126.806 10.16 129.366 11.28V16.16H129.206C127.086 13.64 124.606 11.24 121.886 11.24C120.166 11.24 118.566 12.12 118.566 13.8C118.566 15.76 120.726 16.4 123.886 17.48C128.406 19.04 130.166 20.96 130.166 23.96C130.166 28.4 126.446 30.36 122.446 30.36ZM150.747 0.4C152.627 0.4 154.467 0.839999 156.427 1.6V5.88H156.227C154.547 3.84 152.547 1.88 150.947 1.88C148.867 1.88 148.747 4.6 148.747 8.44V9.96H155.107V11.6H148.747V23.96C148.747 26.52 149.547 29.16 149.707 29.84V30H142.787V29.84C142.947 29.16 143.747 26.52 143.747 23.96V11.6H140.507V9.96H143.747V8.44C143.747 2.24 147.067 0.4 150.747 0.4ZM165.608 30.36C160.088 30.36 155.448 26.68 155.448 19.92C155.448 13.24 160.088 9.72 165.608 9.72C171.088 9.72 175.808 13.24 175.808 19.92C175.808 26.68 171.088 30.36 165.608 30.36ZM165.608 28.84C168.728 28.84 170.248 24.48 170.248 19.92C170.248 15.44 168.728 11.2 165.608 11.2C162.448 11.2 161.008 15.48 161.008 19.92C161.008 24.44 162.408 28.84 165.608 28.84ZM183.88 13.56C185.4 10.68 188.24 8.68 192.08 9.92L191.32 15.36H191.16C189.4 13.64 186.48 12.52 183.88 14.64V23.96C183.88 26.52 184.68 29.16 184.8 29.84V30H177.92V29.84C178.08 29.16 178.88 26.52 178.88 23.96V16C178.88 13.44 178.08 10.8 177.92 10.12V9.96H183.88V13.56ZM232.477 9.96V10.16C231.917 11 230.957 12.72 230.197 14.84L224.997 30H221.717L217.317 17.68L212.917 30H209.837L204.677 15.6C203.797 13.24 202.437 10.8 201.957 10.12V9.96H209.677V10.12C209.477 10.76 209.237 13.28 210.037 15.68L213.117 24.96L216.437 15.28C215.557 13.04 214.277 10.76 213.837 10.12V9.96H221.557V10.12C221.357 10.76 221.117 13.28 221.917 15.68L224.997 24.96L228.117 15.96C228.957 13.44 228.357 10.8 228.117 10.12V9.96H232.477ZM253.303 27.4L253.383 27.52C252.983 29.12 251.663 30.24 249.743 30.24C247.703 30.24 246.343 29.12 245.903 27.2C244.823 28.76 242.863 30.32 239.823 30.32C235.623 30.32 233.383 27.28 233.383 24.16C233.383 19.8 237.943 17.2 243.183 17.88C244.103 17.96 245.063 18.16 245.783 18.4V15.92C245.783 12.96 244.703 11.36 243.103 11.36C240.663 11.36 235.703 15.36 234.983 16.36H234.783V11.24C238.023 10.24 241.183 9.72 243.383 9.72C248.343 9.72 250.783 12.32 250.783 16.16V25.12C250.783 27.28 251.583 28.12 253.303 27.4ZM242.463 27.6C243.703 27.6 244.823 27 245.783 25.92V25.84V19.56C245.583 19.56 245.343 19.56 245.103 19.52C240.823 18.84 238.623 20.96 238.623 23.52C238.623 25.88 240.263 27.6 242.463 27.6ZM264.124 27C265.004 27 266.204 26.76 267.444 26C266.484 28.36 264.524 30.36 261.444 30.36C258.204 30.36 256.324 28.08 256.324 24.36V11.6H253.404V10.2C257.244 8.72 259.324 6.4 261.004 3.64H261.324V9.96H266.804V11.6H261.324V23.84C261.324 26 262.404 27 264.124 27ZM278.294 30.36C273.334 30.36 268.534 26.88 268.534 20C268.534 13.48 272.694 9.72 278.454 9.72C281.494 9.72 284.134 10.88 285.814 11.6L285.894 17.12H285.694C284.294 14.8 281.574 11.2 278.574 11.2C275.414 11.2 273.934 14.68 273.974 18.6C274.014 23.6 276.134 27.04 280.494 27.04C282.254 27.04 284.374 26.44 286.694 24.6L286.814 24.68C285.574 27.68 282.574 30.36 278.294 30.36ZM308.054 23.96C308.054 26.52 308.854 29.16 309.014 29.84V30H302.134V29.84C302.254 29.16 303.094 26.52 303.094 23.96V17.12C303.094 14.12 301.214 12.92 299.094 12.92C297.694 12.92 296.334 13.48 295.054 14.44V23.96C295.054 26.52 295.854 29.16 296.014 29.84V30H289.134V29.84C289.254 29.16 290.094 26.52 290.094 23.96V6.84C290.094 4.32 289.254 1.72 289.014 1.08V0.919998L295.054 0.159998V13.24C296.694 11.08 298.814 9.72 301.494 9.72C304.934 9.72 308.054 11.76 308.054 16.48V23.96ZM311.99 30V29.84C312.11 29.16 312.95 26.52 312.95 23.96V16C312.95 13.44 312.15 10.8 311.99 10.12V9.96H317.91V23.96C317.91 26.52 318.71 29.16 318.87 29.84V30H311.99ZM340.709 23.96C340.709 26.52 341.509 29.16 341.669 29.84V30H334.789V29.84C334.909 29.16 335.749 26.52 335.749 23.96V17.12C335.749 14.12 333.909 12.92 331.909 12.88C330.429 12.88 329.029 13.52 327.709 14.64V23.96C327.709 26.52 328.509 29.16 328.629 29.84V30H321.749V29.84C321.909 29.16 322.709 26.52 322.709 23.96V16C322.709 13.44 321.909 10.8 321.749 10.12V9.96H327.709V13.4C329.189 11.2 331.309 9.72 334.149 9.72C337.589 9.72 340.709 11.76 340.709 16.48V23.96ZM356.807 26.32C360.647 26.32 363.007 28.36 363.007 31.84C363.007 37.04 357.087 38 352.927 38C349.927 38 344.047 37.36 344.047 33.36C344.047 32.08 344.647 30.92 345.647 30.04C344.607 29.24 344.287 28.08 344.287 27C344.287 24.72 345.727 23.36 347.927 22.76C345.807 21.6 344.167 19.6 344.167 16.76C344.167 12.12 348.647 9.72 352.607 9.72C354.167 9.72 355.767 10.08 357.167 10.8C358.287 8.56 360.287 7.12 363.247 7.56L362.487 11.52L362.407 11.56C361.167 10.88 359.647 10.6 357.967 11.24C359.767 12.4 361.087 14.24 361.087 16.76C361.087 21.48 356.527 23.88 352.607 23.88C351.447 23.88 350.247 23.68 349.127 23.28C348.207 23.6 347.407 24.2 347.407 25C347.407 26.16 348.807 26.32 350.287 26.32H356.807ZM352.607 11.16C350.367 11.16 349.087 13.64 349.087 16.8C349.087 19.96 350.367 22.44 352.607 22.44C354.847 22.44 356.167 19.96 356.167 16.8C356.167 13.64 354.847 11.16 352.607 11.16ZM353.407 36.44C356.847 36.44 359.727 35.2 359.727 33.32C359.727 32.12 358.847 31.16 356.647 31.16H349.927C348.767 31.16 347.807 31 347.047 30.76C347.007 31.08 347.007 31.4 347.007 31.8C346.967 34.4 348.887 36.44 353.407 36.44Z" fill="#415124"/>
</svg>
